HIERARCHY
ROOT Hips
{
	OFFSET 0.00000 0.00000 0.00000
	CHANNELS 6 Xposition Yposition Zposition Yrotation Zrotation Xrotation 
	JOINT Lumbar
	{
		OFFSET 0 0 0
		CHANNELS 3 Zrotation Xrotation Yrotation
		JOINT Neck
		{
			OFFSET 0.00 0.2701 0.00
			CHANNELS 3 Zrotation Xrotation Yrotation
			End Site
			{
				OFFSET 0.00 0.1379 0.00
			}
		}
		JOINT RightShoulder
		{
			OFFSET 0.0119 0.2289 0.1181
			CHANNELS 3 Zrotation Xrotation Yrotation
			JOINT RightElbow
			{
				OFFSET 0.00 -0.1475 0.00
				CHANNELS 2 Zrotation Yrotation
				JOINT RightWrist
				{
					OFFSET 0.00 -0.1605 0.00
					CHANNELS 2 Zrotation Xrotation
					End Site
					{
						OFFSET 0.0040 -0.1068 0.0006
					}
				}
			}
		}
		JOINT LeftShoulder
		{
			OFFSET 0.0119 0.2289 -0.1181
			CHANNELS 3 Zrotation Xrotation Yrotation
			JOINT LeftElbow
			{
				OFFSET 0.00 -0.1475 0.00
				CHANNELS 2 Zrotation Yrotation
				JOINT LeftWrist
				{
					OFFSET 0.00 -0.1605 0.00
					CHANNELS 2 Zrotation Xrotation
					End Site
					{
						OFFSET 0.0040 -0.1068 -0.0006
					}
				}
			}
		}
	}
	JOINT RightHip
	{
		OFFSET 0.0316 -0.0424 0.0458
		CHANNELS 3 Zrotation Xrotation Yrotation
		JOINT RightKnee
		{
			OFFSET 0.00 -0.2438 0.00
			CHANNELS 1 Zrotation
			JOINT RightAnkle
			{
				OFFSET 0.00 -0.2449 0.00
				CHANNELS 3 Zrotation Xrotation Yrotation
				End Site
				{
					OFFSET 0.1237 -0.0542 0.0051
				}
			}
		}
	}
	JOINT LeftHip
	{
		OFFSET 0.0316 -0.0424 -0.0458
		CHANNELS 3 Zrotation Xrotation Yrotation
		JOINT LeftKnee
		{
			OFFSET 0.00 -0.2438 0.00
			CHANNELS 1 Zrotation
			JOINT LeftAnkle
			{
				OFFSET 0.00 -0.2449 0.00
				CHANNELS 3 Zrotation Xrotation Yrotation
				End Site
				{
					OFFSET 0.1237 -0.0542 -0.0051
				}
			}
		}
	}
}
MOTION
Frames: 26
Frame Time: 0.02
0.00467 0.57828 -0.01208 178.50284 0 -4.11119 4.17883 4.28836 -14.63604 -36.72363 7.48625 5.03559 143.20807 -45.66044 33.07381 133.99043 127.20322 -44.45467 -8.89979 29.27724 34.38097 13.62346 73.51431 -78.25344 -18.55093 2.24676 -4.38874 3.61022 1.68776 -4.85618 -2.65495 -2.60219 -5.92824 -1.7669 7.7554 -1.89843 -7.27859 5.6548 0.68484 -1.78068
0.00473 0.57829 -0.0116 178.42766 0 -4.10739 4.13907 4.27706 -14.61941 -36.51839 7.5452 5.03402 142.80422 -45.72005 32.67527 133.98388 127.47367 -44.78225 -8.9319 30.67702 32.86869 9.81646 66.18404 -80.91747 -18.50317 2.78801 -4.37604 3.56026 1.76088 -4.84154 -2.67493 -2.5964 -5.9414 -1.8005 7.70472 -1.84545 -7.23022 5.64842 0.69242 -1.75447
0.00474 0.57828 -0.01109 178.31387 0 -4.10459 4.10214 4.2662 -14.58029 -36.3316 7.59974 5.0319 142.40594 -45.78783 32.30599 133.98936 127.69739 -45.11786 -8.95448 32.33708 31.23258 5.92888 58.59462 -84.11534 -18.80147 3.45777 -4.36214 3.50511 1.87765 -4.82503 -2.69581 -2.59345 -5.96022 -1.85265 7.64983 -1.7568 -7.17051 5.64879 0.70103 -1.72165
0.00477 0.57828 -0.01059 178.21678 0 -4.10131 4.06305 4.25484 -14.55327 -36.13682 7.65594 5.02963 142.0066 -45.85229 31.92353 133.98911 127.9403 -45.44719 -8.98124 33.82175 29.64616 2.12627 51.2374 -86.93021 -18.87761 4.0431 -4.34849 3.4519 1.9736 -4.80986 -2.71602 -2.58924 -5.97488 -1.896 7.59647 -1.6843 -7.11744 5.64664 0.70965 -1.69159
0.00481 0.57828 -0.0101 178.12379 0 -4.09813 4.02751 4.24483 -14.51837 -35.94252 7.71395 5.02884 141.60245 -45.91446 31.53897 133.99035 128.19088 -45.78621 -9.00855 35.57111 28.09076 -1.89315 43.37385 -90.34317 -19.22964 4.74214 -4.33629 3.40031 2.07293 -4.79232 -2.73757 -2.5849 -5.99629 -1.9407 7.54457 -1.61278 -7.05827 5.64206 0.71633 -1.66249
0.00482 0.57828 -0.00958 178.0126 0 -4.09499 3.9854 4.23207 -14.49403 -35.75108 7.7668 5.02507 141.20964 -45.98377 31.1665 133.99058 128.41655 -46.10807 -9.03288 36.82188 26.44134 -5.47291 36.51794 -92.64324 -19.09256 5.23241 -4.32059 3.34415 2.17626 -4.77958 -2.75637 -2.58149 -6.00497 -1.98718 7.48867 -1.53004 -7.00902 5.64426 0.72722 -1.62989
0.00477 0.57827 -0.00899 177.86447 0 -4.09165 3.92332 4.2116 -14.51041 -35.55929 7.80901 5.01121 140.8403 -46.06836 30.81882 133.99296 128.5618 -46.37308 -9.0463 36.63239 24.54815 -7.8447 32.44099 -91.63742 -17.4708 5.12759 -4.29702 3.27686 2.27534 -4.77803 -2.76841 -2.58034 -5.97702 -2.03255 7.42296 -1.43039 -6.99045 5.66282 0.75016 -1.5887
0.00469 0.57825 -0.00837 177.69877 0 -4.08834 3.85476 4.18831 -14.53716 -35.3702 7.84572 4.99467 140.48326 -46.16021 30.48307 133.99272 128.68707 -46.62173 -9.05782 35.929 22.56729 -9.76326 29.40301 -89.50963 -15.35409 4.80603 -4.26974 3.20517 2.37779 -4.78182 -2.77745 -2.57998 -5.93615 -2.07931 7.35339 -1.31976 -6.98218 5.68811 0.77716 -1.54435
0.00463 0.57824 -0.00775 177.53834 0 -4.08505 3.78986 4.16637 -14.55522 -35.18184 7.88327 4.98074 140.12438 -46.25065 30.1426 133.98829 128.83733 -46.88327 -9.07364 35.45709 20.63458 -11.87321 25.93429 -87.96112 -13.49428 4.57412 -4.24311 3.13531 2.48191 -4.78488 -2.78709 -2.57902 -5.90114 -2.12647 7.28546 -1.21047 -6.96886 5.71083 0.80186 -1.50173
0.00457 0.57823 -0.00714 177.38737 0 -4.08164 3.72193 4.14433 -14.58915 -34.98544 7.92758 4.9612 139.74926 -46.3341 29.79891 134.00606 128.9216 -47.12336 -9.07517 35.00242 18.65997 -14.0549 22.27697 -86.14077 -11.50788 4.38165 -4.22061 3.06583 2.57437 -4.78088 -2.79989 -2.57913 -5.86604 -2.17009 7.21774 -1.11487 -6.95663 5.73179 0.82855 -1.45746
0.00448 0.57821 -0.00653 177.21386 0 -4.0785 3.65885 4.12162 -14.59292 -34.80678 7.95667 4.95235 139.41159 -46.43282 29.46594 133.97798 129.13567 -47.40251 -9.10544 34.38756 16.75663 -15.96943 19.26808 -84.61036 -9.66785 4.05696 -4.18888 2.99477 2.69093 -4.79266 -2.8055 -2.57725 -5.82839 -2.22093 7.14888 -0.98922 -6.9448 5.75782 0.852 -1.41617
0.00431 0.57819 -0.00592 176.97559 0 -4.07589 3.60985 4.09934 -14.50988 -34.6712 7.94418 4.97714 139.16792 -46.57988 29.14679 133.81422 129.74254 -47.80699 -9.22147 33.44345 15.04502 -17.33434 17.7532 -84.17601 -8.3106 3.393 -4.13063 2.91871 2.87639 -4.84845 -2.79108 -2.56899 -5.78318 -2.2934 7.07633 -0.7785 -6.93089 5.7971 0.86601 -1.3819
0.0041 0.57817 -0.00531 176.71679 0 -4.0736 3.56612 4.07617 -14.3964 -34.55434 7.91679 5.01225 138.96282 -46.74056 28.84057 133.60635 130.47491 -48.24854 -9.36532 32.35714 13.41418 -18.43206 16.86492 -84.06558 -7.12413 2.608 -4.06362 2.84158 3.085 -4.91956 -2.76972 -2.55883 -5.73639 -2.3726 7.00308 -0.53915 -6.91719 5.84103 0.87654 -1.35106
0.00391 0.57815 -0.00471 176.47199 0 -4.07129 3.52049 4.05241 -14.29765 -34.43211 7.89681 5.04022 138.74403 -46.8897 28.53637 133.42476 131.13138 -48.66461 -9.49276 31.34244 11.76374 -19.59994 15.71812 -83.79029 -5.8853 1.89538 -4.00186 2.76606 3.28091 -4.98256 -2.75212 -2.54999 -5.69286 -2.4473 6.93112 -0.31606 -6.90388 5.88221 0.88832 -1.32005
0.00371 0.57813 -0.00407 176.20656 0 -4.06842 3.47242 4.03286 -14.1956 -34.29636 7.87384 5.07795 138.50887 -47.06156 28.19809 133.21604 131.86895 -49.11765 -9.63653 30.27924 10.03599 -20.96488 14.49408 -83.55048 -4.52191 1.10133 -3.93449 2.68553 3.48687 -5.05077 -2.73179 -2.53926 -5.63861 -2.52818 6.85482 -0.07825 -6.88889 5.92635 0.9016 -1.28333
0.00352 0.57811 -0.0035 175.97977 0 -4.06682 3.43094 4.00423 -14.09289 -34.19368 7.85377 5.09847 138.31757 -47.1894 27.93516 133.05432 132.46491 -49.50134 -9.75231 29.2915 8.49206 -21.86638 13.5694 -83.32856 -3.46603 0.45174 -3.87691 2.61537 3.67648 -5.1115 -2.71561 -2.53198 -5.6059 -2.59771 6.78757 0.13479 -6.87731 5.9653 0.91095 -1.25902
0.00338 0.5781 -0.00309 175.86238 0 -4.06836 3.40493 3.95181 -13.9973 -34.17346 7.84417 5.06328 138.23113 -47.19077 27.86417 133.02483 132.6639 -49.69638 -9.78942 28.53608 7.4163 -21.51498 13.28649 -83.07881 -3.21033 0.22473 -3.84727 2.57319 3.82261 -5.14949 -2.7119 -2.53501 -5.63816 -2.63451 6.74453 0.27867 -6.87525 5.98899 0.90961 -1.2711
0.00325 0.5781 -0.00274 175.78523 0 -4.0712 3.38567 3.89008 -13.90181 -34.18664 7.83821 5.01143 138.18854 -47.14762 27.87055 133.04546 132.71228 -49.81842 -9.79657 27.86632 6.52726 -20.7153 13.28365 -82.8412 -3.26193 0.14932 -3.82802 2.54169 3.95012 -5.17911 -2.71272 -2.54154 -5.6914 -2.65952 6.71083 0.39526 -6.8766 6.0072 0.90455 -1.295
0.00311 0.5781 -0.00236 175.69113 0 -4.07362 3.36433 3.83191 -13.80515 -34.18735 7.83142 4.97098 138.13048 -47.12588 27.85043 133.04897 132.81253 -49.96586 -9.81367 27.16668 5.56553 -20.14914 13.16843 -82.6022 -3.18014 0.00968 -3.80482 2.50591 4.08127 -5.21141 -2.71197 -2.54626 -5.73156 -2.68981 6.67352 0.52039 -6.87618 6.02773 0.90158 -1.3116
0.00297 0.5781 -0.00196 175.59016 0 -4.07537 3.33903 3.77656 -13.71195 -34.17737 7.8208 4.9149 138.05562 -47.09969 27.79574 133.02816 132.98403 -50.14647 -9.84652 26.42253 4.55351 -19.44994 13.01401 -82.35595 -3.0779 -0.15338 -3.77801 2.46763 4.23342 -5.24888 -2.70902 -2.55181 -5.786 -2.72092 6.6335 0.66343 -6.87652 6.04918 0.89672 -1.33655
0.00284 0.5781 -0.00163 175.51393 0 -4.07878 3.32346 3.71312 -13.61228 -34.19722 7.81904 4.88707 138.02483 -47.07195 27.82932 133.06911 132.97363 -50.24135 -9.83997 25.79463 3.69164 -18.92197 12.99798 -82.12413 -3.08862 -0.23084 -3.76133 2.43717 4.33731 -5.27353 -2.71169 -2.55653 -5.81648 -2.74712 6.60137 0.76155 -6.87635 6.06733 0.89507 -1.34675
0.00272 0.57812 -0.00145 175.49141 0 -4.08678 3.33364 3.6298 -13.4921 -34.29257 7.8424 4.94318 138.11221 -47.05146 28.10444 133.28048 132.46335 -50.10679 -9.72408 25.45768 3.18085 -19.00438 13.30405 -81.92497 -3.33983 -0.10133 -3.77008 2.42518 4.31042 -5.26362 -2.72989 -2.55779 -5.76903 -2.7653 6.58847 0.74881 -6.87162 6.07765 0.90233 -1.31449
0.0026 0.57814 -0.00134 175.49345 0 -4.09634 3.35328 3.53865 -13.36608 -34.41654 7.87434 5.02792 138.24095 -47.03072 28.4626 133.55026 131.78088 -49.89012 -9.57086 25.23743 2.81774 -19.27127 13.73494 -81.73928 -3.69244 0.10833 -3.78872 2.42081 4.23579 -5.24124 -2.7534 -2.55816 -5.69792 -2.77844 6.58322 0.69061 -6.86666 6.0848 0.91309 -1.2669
0.00248 0.57817 -0.00119 175.48746 0 -4.10499 3.36821 3.45092 -13.24455 -34.52637 7.90144 5.09824 138.34575 -47.00968 28.77159 133.78554 131.19935 -49.71794 -9.43978 24.97024 2.39822 -19.43615 14.09976 -81.54857 -3.99552 0.27686 -3.8029 2.41333 4.18434 -5.22525 -2.7738 -2.55915 -5.6421 -2.79211 6.57463 0.6486 -6.86343 6.09343 0.92295 -1.22534
0.00235 0.57819 -0.00105 175.4695 0 -4.11455 3.38505 3.36336 -13.11512 -34.64186 7.93268 5.17384 138.47356 -46.98902 29.13123 134.05604 130.51737 -49.51347 -9.28595 24.67937 1.93972 -19.65984 14.51396 -81.3535 -4.3246 0.47034 -3.8173 2.40474 4.12632 -5.20591 -2.79736 -2.55936 -5.56817 -2.81276 6.56579 0.62384 -6.85368 6.10178 0.93003 -1.18747
0.00225 0.57822 -0.00093 175.48193 0 -4.12252 3.40014 3.27381 -13.00094 -34.75232 7.95724 5.24556 138.56301 -46.96789 29.40452 134.26653 130.00502 -49.35706 -9.17088 24.46547 1.5955 -19.81333 14.85153 -81.17093 -4.61882 0.62906 -3.83344 2.40009 4.07046 -5.19071 -2.81547 -2.56094 -5.52568 -2.81789 6.55917 0.55356 -6.85715 6.10993 0.94344 -1.13898
